<?xml version="1.0" encoding="utf-8" standalone="no"?>
<!DOCTYPE svg PUBLIC "-//W3C//DTD SVG 1.1//EN"
  "http://www.w3.org/Graphics/SVG/1.1/DTD/svg11.dtd">
<svg xmlns:xlink="http://www.w3.org/1999/xlink" width="1090.68pt" height="495.688125pt" viewBox="0 0 1090.68 495.688125" xmlns="http://www.w3.org/2000/svg" version="1.1">
 <metadata>
  <rdf:RDF xmlns:dc="http://purl.org/dc/elements/1.1/" xmlns:cc="http://creativecommons.org/ns#" xmlns:rdf="http://www.w3.org/1999/02/22-rdf-syntax-ns#">
   <cc:Work>
    <dc:type rdf:resource="http://purl.org/dc/dcmitype/StillImage"/>
    <dc:date>2026-04-01T12:31:10.584518</dc:date>
    <dc:format>image/svg+xml</dc:format>
    <dc:creator>
     <cc:Agent>
      <dc:title>Matplotlib v3.10.8, https://matplotlib.org/</dc:title>
     </cc:Agent>
    </dc:creator>
   </cc:Work>
  </rdf:RDF>
 </metadata>
 <defs>
  <style type="text/css">*{stroke-linejoin: round; stroke-linecap: butt}</style>
 </defs>
 <g id="figure_1">
  <g id="patch_1">
   <path d="M 0 495.688125 
L 1090.68 495.688125 
L 1090.68 0 
L 0 0 
z
" style="fill: #ffffff"/>
  </g>
  <g id="axes_1">
   <g id="patch_2">
    <path d="M 100.7825 436.84 
L 1064.3925 436.84 
L 1064.3925 7.2 
L 100.7825 7.2 
z
" style="fill: #ffffff"/>
   </g>
   <g id="patch_3">
    <path d="M 96.91258 79.003177 
L 38796.109367 79.003177 
L 38796.109367 1045560.729234 
L 96.91258 1045560.729234 
z
" clip-path="url(#pc832bb5882)" style="fill: #ff0000; opacity: 0.3"/>
   </g>
   <g id="matplotlib.axis_1">
    <g id="xtick_1">
     <g id="line2d_1">
      <path d="M 290.408564 436.84 
L 290.408564 7.2 
" clip-path="url(#pc832bb5882)" style="fill: none; stroke: #000000; stroke-opacity: 0.2; stroke-linecap: square"/>
     </g>
     <g id="line2d_2">
      <defs>
       <path id="m37aecfae89" d="M 0 0 
L 0 3.5 
" style="stroke: #000000; stroke-width: 0.8"/>
      </defs>
      <g>
       <use xlink:href="#m37aecfae89" x="290.408564" y="436.84" style="stroke: #000000; stroke-width: 0.8"/>
      </g>
     </g>
     <g id="text_1">
      <!-- 50 -->
      <g transform="translate(277.683564 459.036875) scale(0.2 -0.2)">
       <defs>
        <path id="DejaVuSerif-35" d="M 3219 4666 
L 3219 4153 
L 1081 4153 
L 1081 2816 
Q 1244 2928 1461 2984 
Q 1678 3041 1947 3041 
Q 2703 3041 3140 2622 
Q 3578 2203 3578 1478 
Q 3578 738 3136 323 
Q 2694 -91 1894 -91 
Q 1572 -91 1234 -12 
Q 897 66 544 225 
L 544 1131 
L 897 1131 
Q 925 688 1179 453 
Q 1434 219 1894 219 
Q 2388 219 2653 544 
Q 2919 869 2919 1478 
Q 2919 2084 2655 2407 
Q 2391 2731 1894 2731 
Q 1613 2731 1398 2631 
Q 1184 2531 1019 2322 
L 750 2322 
L 750 4666 
L 3219 4666 
z
" transform="scale(0.015625)"/>
        <path id="DejaVuSerif-30" d="M 2034 219 
Q 2513 219 2750 744 
Q 2988 1269 2988 2328 
Q 2988 3391 2750 3916 
Q 2513 4441 2034 4441 
Q 1556 4441 1318 3916 
Q 1081 3391 1081 2328 
Q 1081 1269 1318 744 
Q 1556 219 2034 219 
z
M 2034 -91 
Q 1275 -91 848 546 
Q 422 1184 422 2328 
Q 422 3475 848 4112 
Q 1275 4750 2034 4750 
Q 2797 4750 3222 4112 
Q 3647 3475 3647 2328 
Q 3647 1184 3222 546 
Q 2797 -91 2034 -91 
z
" transform="scale(0.015625)"/>
       </defs>
       <use xlink:href="#DejaVuSerif-35"/>
       <use xlink:href="#DejaVuSerif-30" transform="translate(63.623047 0)"/>
      </g>
     </g>
    </g>
    <g id="xtick_2">
     <g id="line2d_3">
      <path d="M 483.904548 436.84 
L 483.904548 7.2 
" clip-path="url(#pc832bb5882)" style="fill: none; stroke: #000000; stroke-opacity: 0.2; stroke-linecap: square"/>
     </g>
     <g id="line2d_4">
      <g>
       <use xlink:href="#m37aecfae89" x="483.904548" y="436.84" style="stroke: #000000; stroke-width: 0.8"/>
      </g>
     </g>
     <g id="text_2">
      <!-- 100 -->
      <g transform="translate(464.817048 459.036875) scale(0.2 -0.2)">
       <defs>
        <path id="DejaVuSerif-31" d="M 909 0 
L 909 331 
L 1722 331 
L 1722 4213 
L 781 3603 
L 781 4013 
L 1919 4750 
L 2350 4750 
L 2350 331 
L 3163 331 
L 3163 0 
L 909 0 
z
" transform="scale(0.015625)"/>
       </defs>
       <use xlink:href="#DejaVuSerif-31"/>
       <use xlink:href="#DejaVuSerif-30" transform="translate(63.623047 0)"/>
       <use xlink:href="#DejaVuSerif-30" transform="translate(127.246094 0)"/>
      </g>
     </g>
    </g>
    <g id="xtick_3">
     <g id="line2d_5">
      <path d="M 677.400532 436.84 
L 677.400532 7.2 
" clip-path="url(#pc832bb5882)" style="fill: none; stroke: #000000; stroke-opacity: 0.2; stroke-linecap: square"/>
     </g>
     <g id="line2d_6">
      <g>
       <use xlink:href="#m37aecfae89" x="677.400532" y="436.84" style="stroke: #000000; stroke-width: 0.8"/>
      </g>
     </g>
     <g id="text_3">
      <!-- 150 -->
      <g transform="translate(658.313032 459.036875) scale(0.2 -0.2)">
       <use xlink:href="#DejaVuSerif-31"/>
       <use xlink:href="#DejaVuSerif-35" transform="translate(63.623047 0)"/>
       <use xlink:href="#DejaVuSerif-30" transform="translate(127.246094 0)"/>
      </g>
     </g>
    </g>
    <g id="xtick_4">
     <g id="line2d_7">
      <path d="M 870.896516 436.84 
L 870.896516 7.2 
" clip-path="url(#pc832bb5882)" style="fill: none; stroke: #000000; stroke-opacity: 0.2; stroke-linecap: square"/>
     </g>
     <g id="line2d_8">
      <g>
       <use xlink:href="#m37aecfae89" x="870.896516" y="436.84" style="stroke: #000000; stroke-width: 0.8"/>
      </g>
     </g>
     <g id="text_4">
      <!-- 200 -->
      <g transform="translate(851.809016 459.036875) scale(0.2 -0.2)">
       <defs>
        <path id="DejaVuSerif-32" d="M 819 3553 
L 469 3553 
L 469 4384 
Q 803 4563 1142 4656 
Q 1481 4750 1806 4750 
Q 2534 4750 2956 4397 
Q 3378 4044 3378 3438 
Q 3378 2753 2422 1800 
Q 2347 1728 2309 1691 
L 1131 513 
L 3078 513 
L 3078 1088 
L 3444 1088 
L 3444 0 
L 434 0 
L 434 341 
L 1850 1753 
Q 2319 2222 2519 2614 
Q 2719 3006 2719 3438 
Q 2719 3909 2473 4175 
Q 2228 4441 1797 4441 
Q 1350 4441 1106 4219 
Q 863 3997 819 3553 
z
" transform="scale(0.015625)"/>
       </defs>
       <use xlink:href="#DejaVuSerif-32"/>
       <use xlink:href="#DejaVuSerif-30" transform="translate(63.623047 0)"/>
       <use xlink:href="#DejaVuSerif-30" transform="translate(127.246094 0)"/>
      </g>
     </g>
    </g>
    <g id="xtick_5">
     <g id="line2d_9">
      <path d="M 1064.3925 436.84 
L 1064.3925 7.2 
" clip-path="url(#pc832bb5882)" style="fill: none; stroke: #000000; stroke-opacity: 0.2; stroke-linecap: square"/>
     </g>
     <g id="line2d_10">
      <g>
       <use xlink:href="#m37aecfae89" x="1064.3925" y="436.84" style="stroke: #000000; stroke-width: 0.8"/>
      </g>
     </g>
     <g id="text_5">
      <!-- 250 -->
      <g transform="translate(1045.305 459.036875) scale(0.2 -0.2)">
       <use xlink:href="#DejaVuSerif-32"/>
       <use xlink:href="#DejaVuSerif-35" transform="translate(63.623047 0)"/>
       <use xlink:href="#DejaVuSerif-30" transform="translate(127.246094 0)"/>
      </g>
     </g>
    </g>
    <g id="text_6">
     <!-- x -->
     <g transform="translate(576.384531 483.912813) scale(0.22 -0.22)">
      <defs>
       <path id="DejaVuSerif-78" d="M 1863 2028 
L 2559 2988 
L 2113 2988 
L 2113 3322 
L 3391 3322 
L 3391 2988 
L 2950 2988 
L 2059 1759 
L 3097 331 
L 3531 331 
L 3531 0 
L 1997 0 
L 1997 331 
L 2419 331 
L 1697 1325 
L 972 331 
L 1403 331 
L 1403 0 
L 141 0 
L 141 331 
L 581 331 
L 1497 1594 
L 488 2988 
L 78 2988 
L 78 3322 
L 1563 3322 
L 1563 2988 
L 1166 2988 
L 1863 2028 
z
" transform="scale(0.015625)"/>
      </defs>
      <use xlink:href="#DejaVuSerif-78"/>
     </g>
    </g>
   </g>
   <g id="matplotlib.axis_2">
    <g id="ytick_1">
     <g id="line2d_11">
      <path d="M 100.7825 392.647695 
L 1064.3925 392.647695 
" clip-path="url(#pc832bb5882)" style="fill: none; stroke: #000000; stroke-opacity: 0.2; stroke-linecap: square"/>
     </g>
     <g id="line2d_12">
      <defs>
       <path id="mef9f4bb72c" d="M 0 0 
L -3.5 0 
" style="stroke: #000000; stroke-width: 0.8"/>
      </defs>
      <g>
       <use xlink:href="#mef9f4bb72c" x="100.7825" y="392.647695" style="stroke: #000000; stroke-width: 0.8"/>
      </g>
     </g>
     <g id="text_7">
      <!-- −0.35 -->
      <g transform="translate(32.491875 400.246133) scale(0.2 -0.2)">
       <defs>
        <path id="DejaVuSerif-2212" d="M 678 2259 
L 4684 2259 
L 4684 1753 
L 678 1753 
L 678 2259 
z
" transform="scale(0.015625)"/>
        <path id="DejaVuSerif-2e" d="M 603 325 
Q 603 500 722 622 
Q 841 744 1019 744 
Q 1191 744 1312 622 
Q 1434 500 1434 325 
Q 1434 153 1312 31 
Q 1191 -91 1019 -91 
Q 841 -91 722 29 
Q 603 150 603 325 
z
" transform="scale(0.015625)"/>
        <path id="DejaVuSerif-33" d="M 622 4469 
Q 988 4606 1323 4678 
Q 1659 4750 1953 4750 
Q 2638 4750 3022 4454 
Q 3406 4159 3406 3634 
Q 3406 3213 3140 2930 
Q 2875 2647 2388 2547 
Q 2963 2466 3280 2130 
Q 3597 1794 3597 1259 
Q 3597 606 3158 257 
Q 2719 -91 1894 -91 
Q 1528 -91 1179 -12 
Q 831 66 488 225 
L 488 1131 
L 838 1131 
Q 869 681 1141 450 
Q 1413 219 1906 219 
Q 2384 219 2661 495 
Q 2938 772 2938 1253 
Q 2938 1803 2653 2086 
Q 2369 2369 1819 2369 
L 1522 2369 
L 1522 2688 
L 1678 2688 
Q 2225 2688 2498 2914 
Q 2772 3141 2772 3597 
Q 2772 4006 2547 4223 
Q 2322 4441 1900 4441 
Q 1478 4441 1245 4241 
Q 1013 4041 972 3647 
L 622 3647 
L 622 4469 
z
" transform="scale(0.015625)"/>
       </defs>
       <use xlink:href="#DejaVuSerif-2212"/>
       <use xlink:href="#DejaVuSerif-30" transform="translate(83.789062 0)"/>
       <use xlink:href="#DejaVuSerif-2e" transform="translate(147.412109 0)"/>
       <use xlink:href="#DejaVuSerif-33" transform="translate(179.199219 0)"/>
       <use xlink:href="#DejaVuSerif-35" transform="translate(242.822266 0)"/>
      </g>
     </g>
    </g>
    <g id="ytick_2">
     <g id="line2d_13">
      <path d="M 100.7825 340.373609 
L 1064.3925 340.373609 
" clip-path="url(#pc832bb5882)" style="fill: none; stroke: #000000; stroke-opacity: 0.2; stroke-linecap: square"/>
     </g>
     <g id="line2d_14">
      <g>
       <use xlink:href="#mef9f4bb72c" x="100.7825" y="340.373609" style="stroke: #000000; stroke-width: 0.8"/>
      </g>
     </g>
     <g id="text_8">
      <!-- −0.30 -->
      <g transform="translate(32.491875 347.972046) scale(0.2 -0.2)">
       <use xlink:href="#DejaVuSerif-2212"/>
       <use xlink:href="#DejaVuSerif-30" transform="translate(83.789062 0)"/>
       <use xlink:href="#DejaVuSerif-2e" transform="translate(147.412109 0)"/>
       <use xlink:href="#DejaVuSerif-33" transform="translate(179.199219 0)"/>
       <use xlink:href="#DejaVuSerif-30" transform="translate(242.822266 0)"/>
      </g>
     </g>
    </g>
    <g id="ytick_3">
     <g id="line2d_15">
      <path d="M 100.7825 288.099522 
L 1064.3925 288.099522 
" clip-path="url(#pc832bb5882)" style="fill: none; stroke: #000000; stroke-opacity: 0.2; stroke-linecap: square"/>
     </g>
     <g id="line2d_16">
      <g>
       <use xlink:href="#mef9f4bb72c" x="100.7825" y="288.099522" style="stroke: #000000; stroke-width: 0.8"/>
      </g>
     </g>
     <g id="text_9">
      <!-- −0.25 -->
      <g transform="translate(32.491875 295.69796) scale(0.2 -0.2)">
       <use xlink:href="#DejaVuSerif-2212"/>
       <use xlink:href="#DejaVuSerif-30" transform="translate(83.789062 0)"/>
       <use xlink:href="#DejaVuSerif-2e" transform="translate(147.412109 0)"/>
       <use xlink:href="#DejaVuSerif-32" transform="translate(179.199219 0)"/>
       <use xlink:href="#DejaVuSerif-35" transform="translate(242.822266 0)"/>
      </g>
     </g>
    </g>
    <g id="ytick_4">
     <g id="line2d_17">
      <path d="M 100.7825 235.825436 
L 1064.3925 235.825436 
" clip-path="url(#pc832bb5882)" style="fill: none; stroke: #000000; stroke-opacity: 0.2; stroke-linecap: square"/>
     </g>
     <g id="line2d_18">
      <g>
       <use xlink:href="#mef9f4bb72c" x="100.7825" y="235.825436" style="stroke: #000000; stroke-width: 0.8"/>
      </g>
     </g>
     <g id="text_10">
      <!-- −0.20 -->
      <g transform="translate(32.491875 243.423874) scale(0.2 -0.2)">
       <use xlink:href="#DejaVuSerif-2212"/>
       <use xlink:href="#DejaVuSerif-30" transform="translate(83.789062 0)"/>
       <use xlink:href="#DejaVuSerif-2e" transform="translate(147.412109 0)"/>
       <use xlink:href="#DejaVuSerif-32" transform="translate(179.199219 0)"/>
       <use xlink:href="#DejaVuSerif-30" transform="translate(242.822266 0)"/>
      </g>
     </g>
    </g>
    <g id="ytick_5">
     <g id="line2d_19">
      <path d="M 100.7825 183.55135 
L 1064.3925 183.55135 
" clip-path="url(#pc832bb5882)" style="fill: none; stroke: #000000; stroke-opacity: 0.2; stroke-linecap: square"/>
     </g>
     <g id="line2d_20">
      <g>
       <use xlink:href="#mef9f4bb72c" x="100.7825" y="183.55135" style="stroke: #000000; stroke-width: 0.8"/>
      </g>
     </g>
     <g id="text_11">
      <!-- −0.15 -->
      <g transform="translate(32.491875 191.149787) scale(0.2 -0.2)">
       <use xlink:href="#DejaVuSerif-2212"/>
       <use xlink:href="#DejaVuSerif-30" transform="translate(83.789062 0)"/>
       <use xlink:href="#DejaVuSerif-2e" transform="translate(147.412109 0)"/>
       <use xlink:href="#DejaVuSerif-31" transform="translate(179.199219 0)"/>
       <use xlink:href="#DejaVuSerif-35" transform="translate(242.822266 0)"/>
      </g>
     </g>
    </g>
    <g id="ytick_6">
     <g id="line2d_21">
      <path d="M 100.7825 131.277264 
L 1064.3925 131.277264 
" clip-path="url(#pc832bb5882)" style="fill: none; stroke: #000000; stroke-opacity: 0.2; stroke-linecap: square"/>
     </g>
     <g id="line2d_22">
      <g>
       <use xlink:href="#mef9f4bb72c" x="100.7825" y="131.277264" style="stroke: #000000; stroke-width: 0.8"/>
      </g>
     </g>
     <g id="text_12">
      <!-- −0.10 -->
      <g transform="translate(32.491875 138.875701) scale(0.2 -0.2)">
       <use xlink:href="#DejaVuSerif-2212"/>
       <use xlink:href="#DejaVuSerif-30" transform="translate(83.789062 0)"/>
       <use xlink:href="#DejaVuSerif-2e" transform="translate(147.412109 0)"/>
       <use xlink:href="#DejaVuSerif-31" transform="translate(179.199219 0)"/>
       <use xlink:href="#DejaVuSerif-30" transform="translate(242.822266 0)"/>
      </g>
     </g>
    </g>
    <g id="ytick_7">
     <g id="line2d_23">
      <path d="M 100.7825 79.003177 
L 1064.3925 79.003177 
" clip-path="url(#pc832bb5882)" style="fill: none; stroke: #000000; stroke-opacity: 0.2; stroke-linecap: square"/>
     </g>
     <g id="line2d_24">
      <g>
       <use xlink:href="#mef9f4bb72c" x="100.7825" y="79.003177" style="stroke: #000000; stroke-width: 0.8"/>
      </g>
     </g>
     <g id="text_13">
      <!-- −0.05 -->
      <g transform="translate(32.491875 86.601615) scale(0.2 -0.2)">
       <use xlink:href="#DejaVuSerif-2212"/>
       <use xlink:href="#DejaVuSerif-30" transform="translate(83.789062 0)"/>
       <use xlink:href="#DejaVuSerif-2e" transform="translate(147.412109 0)"/>
       <use xlink:href="#DejaVuSerif-30" transform="translate(179.199219 0)"/>
       <use xlink:href="#DejaVuSerif-35" transform="translate(242.822266 0)"/>
      </g>
     </g>
    </g>
    <g id="ytick_8">
     <g id="line2d_25">
      <path d="M 100.7825 26.729091 
L 1064.3925 26.729091 
" clip-path="url(#pc832bb5882)" style="fill: none; stroke: #000000; stroke-opacity: 0.2; stroke-linecap: square"/>
     </g>
     <g id="line2d_26">
      <g>
       <use xlink:href="#mef9f4bb72c" x="100.7825" y="26.729091" style="stroke: #000000; stroke-width: 0.8"/>
      </g>
     </g>
     <g id="text_14">
      <!-- 0.00 -->
      <g transform="translate(49.25125 34.327528) scale(0.2 -0.2)">
       <use xlink:href="#DejaVuSerif-30"/>
       <use xlink:href="#DejaVuSerif-2e" transform="translate(63.623047 0)"/>
       <use xlink:href="#DejaVuSerif-30" transform="translate(95.410156 0)"/>
       <use xlink:href="#DejaVuSerif-30" transform="translate(159.033203 0)"/>
      </g>
     </g>
    </g>
    <g id="text_15">
     <!-- Error -->
     <g transform="translate(23.916563 252.445313) rotate(-90) scale(0.22 -0.22)">
      <defs>
       <path id="DejaVuSerif-45" d="M 353 0 
L 353 331 
L 947 331 
L 947 4331 
L 353 4331 
L 353 4666 
L 4109 4666 
L 4109 3628 
L 3725 3628 
L 3725 4281 
L 1581 4281 
L 1581 2719 
L 3109 2719 
L 3109 3303 
L 3494 3303 
L 3494 1753 
L 3109 1753 
L 3109 2338 
L 1581 2338 
L 1581 384 
L 3775 384 
L 3775 1038 
L 4159 1038 
L 4159 0 
L 353 0 
z
" transform="scale(0.015625)"/>
       <path id="DejaVuSerif-72" d="M 3059 3328 
L 3059 2497 
L 2728 2497 
Q 2713 2744 2591 2866 
Q 2469 2988 2234 2988 
Q 1809 2988 1582 2694 
Q 1356 2400 1356 1850 
L 1356 331 
L 2022 331 
L 2022 0 
L 263 0 
L 263 331 
L 781 331 
L 781 2994 
L 231 2994 
L 231 3322 
L 1356 3322 
L 1356 2731 
Q 1525 3078 1790 3245 
Q 2056 3413 2438 3413 
Q 2578 3413 2733 3391 
Q 2888 3369 3059 3328 
z
" transform="scale(0.015625)"/>
       <path id="DejaVuSerif-6f" d="M 1925 219 
Q 2388 219 2623 584 
Q 2859 950 2859 1663 
Q 2859 2375 2623 2739 
Q 2388 3103 1925 3103 
Q 1463 3103 1227 2739 
Q 991 2375 991 1663 
Q 991 950 1228 584 
Q 1466 219 1925 219 
z
M 1925 -91 
Q 1200 -91 759 389 
Q 319 869 319 1663 
Q 319 2456 758 2934 
Q 1197 3413 1925 3413 
Q 2653 3413 3092 2934 
Q 3531 2456 3531 1663 
Q 3531 869 3092 389 
Q 2653 -91 1925 -91 
z
" transform="scale(0.015625)"/>
      </defs>
      <use xlink:href="#DejaVuSerif-45"/>
      <use xlink:href="#DejaVuSerif-72" transform="translate(72.998047 0)"/>
      <use xlink:href="#DejaVuSerif-72" transform="translate(120.800781 0)"/>
      <use xlink:href="#DejaVuSerif-6f" transform="translate(168.603516 0)"/>
      <use xlink:href="#DejaVuSerif-72" transform="translate(228.808594 0)"/>
     </g>
    </g>
   </g>
   <g id="line2d_27">
    <path d="M 100.7825 26.729091 
L 102.020848 130.129365 
L 103.259196 198.218946 
L 104.497544 246.39528 
L 105.735892 282.10904 
L 106.97424 309.451083 
L 108.212588 330.873014 
L 109.450936 347.941934 
L 110.689284 361.710496 
L 111.927632 372.914187 
L 113.16598 382.083626 
L 114.404328 389.61195 
L 115.642676 395.797042 
L 116.881024 400.868985 
L 118.119372 405.008463 
L 119.35772 408.359441 
L 120.596068 411.038097 
L 121.834416 413.139257 
L 123.072764 414.741104 
L 124.311112 415.90869 
L 125.54946 416.696584 
L 126.787808 417.150908 
L 128.026156 417.310909 
L 129.264504 417.210191 
L 130.502852 416.877694 
L 131.7412 416.338468 
L 132.979548 415.614308 
L 134.217895 414.724257 
L 136.694591 412.51134 
L 139.171287 409.811189 
L 141.647983 406.71147 
L 144.124679 403.281989 
L 147.839723 397.639473 
L 151.554767 391.526771 
L 156.508159 382.831771 
L 161.461551 373.685279 
L 167.653291 361.819963 
L 176.321727 344.715863 
L 192.420251 312.334797 
L 213.472166 270.116021 
L 227.093994 243.285373 
L 240.715822 216.963346 
L 253.099302 193.508467 
L 265.482782 170.513158 
L 277.866261 147.973247 
L 290.249741 125.878078 
L 302.633221 104.213441 
L 315.016701 82.963335 
L 328.638529 60.047047 
L 342.260356 37.589808 
L 348.452096 27.527802 
L 349.690444 26.989615 
L 355.882184 29.041252 
L 363.312272 31.245845 
L 370.74236 33.190061 
L 378.172448 34.893474 
L 385.602536 36.373794 
L 393.032624 37.647087 
L 401.701059 38.89035 
L 410.369495 39.892642 
L 419.037931 40.672847 
L 427.706367 41.248005 
L 437.613151 41.673955 
L 447.519935 41.872906 
L 457.426719 41.86345 
L 468.57185 41.62446 
L 479.716982 41.164178 
L 492.100462 40.416336 
L 504.483942 39.442087 
L 518.10577 38.133539 
L 531.727598 36.600433 
L 546.587773 34.697131 
L 561.447949 32.576933 
L 577.546473 30.060479 
L 594.883345 27.122164 
L 597.360041 26.755346 
L 610.981868 28.06682 
L 624.603696 29.163047 
L 639.463872 30.13186 
L 654.324048 30.881632 
L 670.422571 31.465995 
L 686.521095 31.831938 
L 703.857967 32.001466 
L 722.433187 31.946053 
L 741.008406 31.666197 
L 760.821974 31.141717 
L 781.87389 30.351436 
L 802.925805 29.34267 
L 825.216069 28.058214 
L 846.267985 26.778511 
L 867.319901 27.703784 
L 888.371816 28.411693 
L 910.66208 28.942662 
L 934.190692 29.278382 
L 958.957651 29.402616 
L 984.962959 29.301195 
L 1012.206614 28.96197 
L 1040.688618 28.374746 
L 1065.455578 27.687222 
L 1065.455578 27.687222 
" clip-path="url(#pc832bb5882)" style="fill: none; stroke: #1f77b4; stroke-width: 3; stroke-linecap: square"/>
   </g>
   <g id="line2d_28">
    <path d="M 100.7825 26.729091 
L 102.020848 123.981235 
L 103.259196 187.18734 
L 104.497544 231.258819 
L 105.735892 263.396875 
L 106.97424 287.547505 
L 108.212588 306.070726 
L 109.450936 320.472 
L 110.689284 331.760471 
L 111.927632 340.639728 
L 113.16598 347.616286 
L 114.404328 353.064595 
L 115.642676 357.267743 
L 116.881024 360.443885 
L 118.119372 362.76394 
L 119.35772 364.363767 
L 120.596068 365.35274 
L 121.834416 365.819907 
L 123.072764 365.838501 
L 124.311112 365.4693 
L 125.54946 364.763153 
L 126.787808 363.762921 
L 128.026156 362.504975 
L 129.264504 361.020371 
L 131.7412 357.474201 
L 134.217895 353.297404 
L 136.694591 348.621104 
L 139.171287 343.546304 
L 142.886331 335.354854 
L 146.601375 326.641203 
L 151.554767 314.454229 
L 157.746507 298.628414 
L 167.653291 272.60475 
L 196.135295 197.42784 
L 208.518774 165.54911 
L 219.663906 137.458273 
L 230.809038 109.962707 
L 241.95417 83.063138 
L 253.099302 56.747261 
L 264.244434 30.9959 
L 265.482782 28.168524 
L 266.72113 27.043247 
L 271.674521 29.445267 
L 276.627913 31.573569 
L 281.581305 33.448978 
L 286.534697 35.090313 
L 291.488089 36.51462 
L 296.441481 37.737375 
L 302.633221 39.003732 
L 308.824961 40.001919 
L 315.016701 40.754143 
L 321.208441 41.280323 
L 327.400181 41.598378 
L 334.830268 41.727964 
L 342.260356 41.606069 
L 349.690444 41.254946 
L 357.120532 40.694456 
L 365.788968 39.799541 
L 374.457404 38.668896 
L 383.12584 37.324752 
L 393.032624 35.552379 
L 402.939407 33.552903 
L 414.084539 31.060451 
L 425.229671 28.338084 
L 431.421411 26.735631 
L 443.804891 28.454773 
L 453.711675 29.557505 
L 463.618459 30.431763 
L 473.525242 31.095104 
L 484.670374 31.608958 
L 495.815506 31.896299 
L 506.960638 31.97543 
L 519.344118 31.839149 
L 531.727598 31.48644 
L 545.349425 30.870139 
L 558.971253 30.035566 
L 573.831429 28.898792 
L 588.691605 27.547454 
L 597.360041 26.772291 
L 610.981868 27.671054 
L 625.842044 28.418801 
L 640.70222 28.942639 
L 656.800744 29.2778 
L 672.899267 29.390878 
L 690.236139 29.284952 
L 707.573011 28.962587 
L 726.148231 28.397559 
L 745.961798 27.566331 
L 763.29867 26.780417 
L 781.87389 27.465575 
L 801.687458 27.967647 
L 821.501025 28.252254 
L 842.552941 28.335589 
L 864.843205 28.198003 
L 888.371816 27.822168 
L 913.138776 27.193082 
L 929.2373 26.779682 
L 952.765911 27.323337 
L 977.532871 27.669526 
L 1003.538178 27.803704 
L 1030.781834 27.713276 
L 1059.263838 27.387534 
L 1065.455578 27.287464 
L 1065.455578 27.287464 
" clip-path="url(#pc832bb5882)" style="fill: none; stroke: #ff7f0e; stroke-width: 3; stroke-linecap: square"/>
   </g>
   <g id="line2d_29">
    <path d="M 100.7825 26.729091 
L 102.020848 119.07718 
L 103.259196 178.387981 
L 104.497544 219.185223 
L 105.735892 248.471119 
L 106.97424 270.07612 
L 108.212588 286.287185 
L 109.450936 298.560613 
L 110.689284 307.870838 
L 111.927632 314.896013 
L 113.16598 320.123419 
L 114.404328 323.912604 
L 115.642676 326.534854 
L 116.881024 328.19881 
L 118.119372 329.067603 
L 119.35772 329.270626 
L 120.596068 328.911824 
L 121.834416 328.075635 
L 123.072764 326.831349 
L 124.311112 325.23633 
L 125.54946 323.338461 
L 126.787808 321.178002 
L 129.264504 316.20057 
L 131.7412 310.521128 
L 134.217895 304.300285 
L 137.932939 294.210655 
L 141.647983 283.465359 
L 146.601375 268.462421 
L 154.031463 245.123344 
L 172.606683 185.571114 
L 184.990163 146.328964 
L 196.135295 111.748264 
L 206.042078 81.684363 
L 215.948862 52.277304 
L 224.617298 27.082234 
L 225.855646 27.48177 
L 229.57069 29.804536 
L 233.285734 31.861514 
L 237.000778 33.672717 
L 240.715822 35.256248 
L 244.430866 36.628525 
L 248.14591 37.804469 
L 251.860954 38.797675 
L 256.814346 39.858989 
L 261.767738 40.64393 
L 266.72113 41.176156 
L 271.674521 41.47682 
L 276.627913 41.564887 
L 281.581305 41.457414 
L 287.773045 41.071383 
L 293.964785 40.430585 
L 300.156525 39.558771 
L 306.348265 38.477026 
L 313.778353 36.928122 
L 321.208441 35.132559 
L 328.638529 33.115516 
L 337.306964 30.511807 
L 345.9754 27.667539 
L 348.452096 26.814549 
L 349.690444 26.932288 
L 357.120532 28.303467 
L 364.55062 29.426169 
L 371.980708 30.319887 
L 379.410796 31.002204 
L 388.079232 31.552183 
L 396.747668 31.858726 
L 405.416103 31.942163 
L 414.084539 31.820736 
L 423.991323 31.45209 
L 433.898107 30.859215 
L 445.043239 29.948512 
L 456.188371 28.803547 
L 467.333503 27.446276 
L 472.286894 26.780081 
L 474.76359 26.933146 
L 485.908722 27.86152 
L 497.053854 28.552296 
L 508.198986 29.02439 
L 520.582466 29.313143 
L 532.965946 29.373955 
L 546.587773 29.200011 
L 560.209601 28.795459 
L 575.069777 28.114582 
L 589.929953 27.206192 
L 597.360041 26.77204 
L 610.981868 27.444234 
L 625.842044 27.951516 
L 640.70222 28.241463 
L 656.800744 28.3302 
L 672.899267 28.203649 
L 690.236139 27.846781 
L 708.811359 27.232406 
L 722.433187 26.79855 
L 739.770058 27.326839 
L 758.345278 27.669587 
L 778.158846 27.801209 
L 797.972414 27.711277 
L 819.024329 27.393425 
L 841.314593 26.828635 
L 846.267985 26.774978 
L 867.319901 27.213036 
L 889.610164 27.454508 
L 913.138776 27.481452 
L 937.905735 27.278116 
L 963.911043 26.830914 
L 970.102783 26.760854 
L 994.869743 27.130952 
L 1020.87505 27.297938 
L 1048.118706 27.249249 
L 1065.455578 27.107815 
L 1065.455578 27.107815 
" clip-path="url(#pc832bb5882)" style="fill: none; stroke: #2ca02c; stroke-width: 3; stroke-linecap: square"/>
   </g>
   <g id="line2d_30">
    <path d="M 100.7825 26.729091 
L 102.020848 83.967836 
L 103.259196 115.391188 
L 104.497544 132.747354 
L 105.735892 141.613934 
L 106.97424 144.994142 
L 108.212588 144.65191 
L 109.450936 141.691551 
L 110.689284 136.839033 
L 111.927632 130.590365 
L 113.16598 123.295164 
L 115.642676 106.510477 
L 118.119372 87.827169 
L 121.834416 57.855033 
L 125.54946 26.768815 
L 126.787808 29.903855 
L 128.026156 32.523435 
L 129.264504 34.63676 
L 130.502852 36.297531 
L 131.7412 37.552347 
L 132.979548 38.441847 
L 134.217895 39.001633 
L 135.456243 39.263023 
L 136.694591 39.253681 
L 137.932939 38.99813 
L 139.171287 38.518184 
L 140.409635 37.833312 
L 141.647983 36.960939 
L 142.886331 35.916712 
L 145.363027 33.367651 
L 147.839723 30.283252 
L 150.316419 26.743326 
L 152.793115 28.704536 
L 154.031463 29.471556 
L 155.269811 30.100883 
L 156.508159 30.600889 
L 158.984855 31.243309 
L 161.461551 31.4541 
L 163.938247 31.280872 
L 166.414943 30.764847 
L 168.891639 29.941888 
L 171.368335 28.843338 
L 173.845031 27.496708 
L 175.083379 26.738053 
L 177.560075 27.717119 
L 180.036771 28.438907 
L 182.513467 28.91116 
L 184.990163 29.154635 
L 187.466859 29.187958 
L 189.943555 29.027894 
L 192.420251 28.689571 
L 194.896947 28.186672 
L 198.611991 27.150577 
L 199.850339 26.735654 
L 203.565382 27.55938 
L 207.280426 28.054591 
L 210.99547 28.24239 
L 214.710514 28.151712 
L 218.425558 27.808162 
L 222.140602 27.234481 
L 224.617298 26.734273 
L 228.332342 27.282604 
L 232.047386 27.618921 
L 235.76243 27.751358 
L 239.477474 27.695783 
L 244.430866 27.353829 
L 249.384258 26.733374 
L 254.33765 27.222026 
L 259.291042 27.448469 
L 264.244434 27.428605 
L 269.197825 27.18369 
L 274.151217 26.732741 
L 280.342957 27.16026 
L 285.296349 27.285029 
L 291.488089 27.187297 
L 297.679829 26.832103 
L 298.918177 26.732271 
L 305.109917 27.064818 
L 311.301657 27.165646 
L 317.493397 27.048708 
L 324.923485 26.7967 
L 331.115225 27.028928 
L 338.545312 27.062859 
L 345.9754 26.852347 
L 349.690444 26.784139 
L 357.120532 26.994184 
L 364.55062 26.988183 
L 371.980708 26.783646 
L 374.457404 26.774749 
L 383.12584 26.961686 
L 391.794276 26.906829 
L 400.462712 26.803407 
L 409.131147 26.931757 
L 417.799583 26.857847 
L 425.229671 26.792655 
L 435.136455 26.904381 
L 445.043239 26.791832 
L 449.996631 26.784065 
L 459.903415 26.881268 
L 471.048546 26.758647 
L 474.76359 26.777095 
L 485.908722 26.860845 
L 529.250902 26.81761 
L 541.634381 26.795904 
L 551.541165 26.789376 
L 565.162993 26.799245 
L 577.546473 26.792721 
L 591.168301 26.783164 
L 602.313432 26.786643 
L 617.173608 26.768336 
L 627.080392 26.781393 
L 643.178916 26.754629 
L 651.847352 26.776827 
L 667.945876 26.752481 
L 677.852659 26.778144 
L 710.049707 26.780687 
L 773.205454 26.750531 
L 793.019022 26.737878 
L 805.402501 26.768468 
L 1039.45027 26.737821 
L 1065.455578 26.733769 
L 1065.455578 26.733769 
" clip-path="url(#pc832bb5882)" style="fill: none; stroke: #d62728; stroke-width: 3; stroke-linecap: square"/>
   </g>
   <g id="patch_4">
    <path d="M 100.7825 436.84 
L 100.7825 7.2 
" style="fill: none; stroke: #000000; stroke-width: 0.8; stroke-linejoin: miter; stroke-linecap: square"/>
   </g>
   <g id="patch_5">
    <path d="M 1064.3925 436.84 
L 1064.3925 7.2 
" style="fill: none; opacity: 0.2; stroke: #000000; stroke-width: 0.8; stroke-linejoin: miter; stroke-linecap: square"/>
   </g>
   <g id="patch_6">
    <path d="M 100.7825 436.84 
L 1064.3925 436.84 
" style="fill: none; stroke: #000000; stroke-width: 0.8; stroke-linejoin: miter; stroke-linecap: square"/>
   </g>
   <g id="patch_7">
    <path d="M 100.7825 7.2 
L 1064.3925 7.2 
" style="fill: none; opacity: 0.2; stroke: #000000; stroke-width: 0.8; stroke-linejoin: miter; stroke-linecap: square"/>
   </g>
   <g id="legend_1">
    <g id="patch_8">
     <path d="M 898.0325 428.84 
L 1053.1925 428.84 
Q 1056.3925 428.84 1056.3925 425.64 
L 1056.3925 333.3 
Q 1056.3925 330.1 1053.1925 330.1 
L 898.0325 330.1 
Q 894.8325 330.1 894.8325 333.3 
L 894.8325 425.64 
Q 894.8325 428.84 898.0325 428.84 
z
" style="fill: #ffffff; opacity: 0.8; stroke: #cccccc; stroke-linejoin: miter"/>
    </g>
    <g id="line2d_31">
     <path d="M 901.2325 343.0575 
L 917.2325 343.0575 
L 933.2325 343.0575 
" style="fill: none; stroke: #1f77b4; stroke-width: 3; stroke-linecap: square"/>
    </g>
    <g id="text_16">
     <!-- 4 segments -->
     <g transform="translate(946.0325 348.6575) scale(0.16 -0.16)">
      <defs>
       <path id="DejaVuSans-34" d="M 2419 4116 
L 825 1625 
L 2419 1625 
L 2419 4116 
z
M 2253 4666 
L 3047 4666 
L 3047 1625 
L 3713 1625 
L 3713 1100 
L 3047 1100 
L 3047 0 
L 2419 0 
L 2419 1100 
L 313 1100 
L 313 1709 
L 2253 4666 
z
" transform="scale(0.015625)"/>
       <path id="DejaVuSans-20" transform="scale(0.015625)"/>
       <path id="DejaVuSans-73" d="M 2834 3397 
L 2834 2853 
Q 2591 2978 2328 3040 
Q 2066 3103 1784 3103 
Q 1356 3103 1142 2972 
Q 928 2841 928 2578 
Q 928 2378 1081 2264 
Q 1234 2150 1697 2047 
L 1894 2003 
Q 2506 1872 2764 1633 
Q 3022 1394 3022 966 
Q 3022 478 2636 193 
Q 2250 -91 1575 -91 
Q 1294 -91 989 -36 
Q 684 19 347 128 
L 347 722 
Q 666 556 975 473 
Q 1284 391 1588 391 
Q 1994 391 2212 530 
Q 2431 669 2431 922 
Q 2431 1156 2273 1281 
Q 2116 1406 1581 1522 
L 1381 1569 
Q 847 1681 609 1914 
Q 372 2147 372 2553 
Q 372 3047 722 3315 
Q 1072 3584 1716 3584 
Q 2034 3584 2315 3537 
Q 2597 3491 2834 3397 
z
" transform="scale(0.015625)"/>
       <path id="DejaVuSans-65" d="M 3597 1894 
L 3597 1613 
L 953 1613 
Q 991 1019 1311 708 
Q 1631 397 2203 397 
Q 2534 397 2845 478 
Q 3156 559 3463 722 
L 3463 178 
Q 3153 47 2828 -22 
Q 2503 -91 2169 -91 
Q 1331 -91 842 396 
Q 353 884 353 1716 
Q 353 2575 817 3079 
Q 1281 3584 2069 3584 
Q 2775 3584 3186 3129 
Q 3597 2675 3597 1894 
z
M 3022 2063 
Q 3016 2534 2758 2815 
Q 2500 3097 2075 3097 
Q 1594 3097 1305 2825 
Q 1016 2553 972 2059 
L 3022 2063 
z
" transform="scale(0.015625)"/>
       <path id="DejaVuSans-67" d="M 2906 1791 
Q 2906 2416 2648 2759 
Q 2391 3103 1925 3103 
Q 1463 3103 1205 2759 
Q 947 2416 947 1791 
Q 947 1169 1205 825 
Q 1463 481 1925 481 
Q 2391 481 2648 825 
Q 2906 1169 2906 1791 
z
M 3481 434 
Q 3481 -459 3084 -895 
Q 2688 -1331 1869 -1331 
Q 1566 -1331 1297 -1286 
Q 1028 -1241 775 -1147 
L 775 -588 
Q 1028 -725 1275 -790 
Q 1522 -856 1778 -856 
Q 2344 -856 2625 -561 
Q 2906 -266 2906 331 
L 2906 616 
Q 2728 306 2450 153 
Q 2172 0 1784 0 
Q 1141 0 747 490 
Q 353 981 353 1791 
Q 353 2603 747 3093 
Q 1141 3584 1784 3584 
Q 2172 3584 2450 3431 
Q 2728 3278 2906 2969 
L 2906 3500 
L 3481 3500 
L 3481 434 
z
" transform="scale(0.015625)"/>
       <path id="DejaVuSans-6d" d="M 3328 2828 
Q 3544 3216 3844 3400 
Q 4144 3584 4550 3584 
Q 5097 3584 5394 3201 
Q 5691 2819 5691 2113 
L 5691 0 
L 5113 0 
L 5113 2094 
Q 5113 2597 4934 2840 
Q 4756 3084 4391 3084 
Q 3944 3084 3684 2787 
Q 3425 2491 3425 1978 
L 3425 0 
L 2847 0 
L 2847 2094 
Q 2847 2600 2669 2842 
Q 2491 3084 2119 3084 
Q 1678 3084 1418 2786 
Q 1159 2488 1159 1978 
L 1159 0 
L 581 0 
L 581 3500 
L 1159 3500 
L 1159 2956 
Q 1356 3278 1631 3431 
Q 1906 3584 2284 3584 
Q 2666 3584 2933 3390 
Q 3200 3197 3328 2828 
z
" transform="scale(0.015625)"/>
       <path id="DejaVuSans-6e" d="M 3513 2113 
L 3513 0 
L 2938 0 
L 2938 2094 
Q 2938 2591 2744 2837 
Q 2550 3084 2163 3084 
Q 1697 3084 1428 2787 
Q 1159 2491 1159 1978 
L 1159 0 
L 581 0 
L 581 3500 
L 1159 3500 
L 1159 2956 
Q 1366 3272 1645 3428 
Q 1925 3584 2291 3584 
Q 2894 3584 3203 3211 
Q 3513 2838 3513 2113 
z
" transform="scale(0.015625)"/>
       <path id="DejaVuSans-74" d="M 1172 4494 
L 1172 3500 
L 2356 3500 
L 2356 3053 
L 1172 3053 
L 1172 1153 
Q 1172 725 1289 603 
Q 1406 481 1766 481 
L 2356 481 
L 2356 0 
L 1766 0 
Q 1100 0 847 248 
Q 594 497 594 1153 
L 594 3053 
L 172 3053 
L 172 3500 
L 594 3500 
L 594 4494 
L 1172 4494 
z
" transform="scale(0.015625)"/>
      </defs>
      <use xlink:href="#DejaVuSans-34"/>
      <use xlink:href="#DejaVuSans-20" transform="translate(63.623047 0)"/>
      <use xlink:href="#DejaVuSans-73" transform="translate(95.410156 0)"/>
      <use xlink:href="#DejaVuSans-65" transform="translate(147.509766 0)"/>
      <use xlink:href="#DejaVuSans-67" transform="translate(209.033203 0)"/>
      <use xlink:href="#DejaVuSans-6d" transform="translate(272.509766 0)"/>
      <use xlink:href="#DejaVuSans-65" transform="translate(369.921875 0)"/>
      <use xlink:href="#DejaVuSans-6e" transform="translate(431.445312 0)"/>
      <use xlink:href="#DejaVuSans-74" transform="translate(494.824219 0)"/>
      <use xlink:href="#DejaVuSans-73" transform="translate(534.033203 0)"/>
     </g>
    </g>
    <g id="line2d_32">
     <path d="M 901.2325 366.5425 
L 917.2325 366.5425 
L 933.2325 366.5425 
" style="fill: none; stroke: #ff7f0e; stroke-width: 3; stroke-linecap: square"/>
    </g>
    <g id="text_17">
     <!-- 6 segments -->
     <g transform="translate(946.0325 372.1425) scale(0.16 -0.16)">
      <defs>
       <path id="DejaVuSans-36" d="M 2113 2584 
Q 1688 2584 1439 2293 
Q 1191 2003 1191 1497 
Q 1191 994 1439 701 
Q 1688 409 2113 409 
Q 2538 409 2786 701 
Q 3034 994 3034 1497 
Q 3034 2003 2786 2293 
Q 2538 2584 2113 2584 
z
M 3366 4563 
L 3366 3988 
Q 3128 4100 2886 4159 
Q 2644 4219 2406 4219 
Q 1781 4219 1451 3797 
Q 1122 3375 1075 2522 
Q 1259 2794 1537 2939 
Q 1816 3084 2150 3084 
Q 2853 3084 3261 2657 
Q 3669 2231 3669 1497 
Q 3669 778 3244 343 
Q 2819 -91 2113 -91 
Q 1303 -91 875 529 
Q 447 1150 447 2328 
Q 447 3434 972 4092 
Q 1497 4750 2381 4750 
Q 2619 4750 2861 4703 
Q 3103 4656 3366 4563 
z
" transform="scale(0.015625)"/>
      </defs>
      <use xlink:href="#DejaVuSans-36"/>
      <use xlink:href="#DejaVuSans-20" transform="translate(63.623047 0)"/>
      <use xlink:href="#DejaVuSans-73" transform="translate(95.410156 0)"/>
      <use xlink:href="#DejaVuSans-65" transform="translate(147.509766 0)"/>
      <use xlink:href="#DejaVuSans-67" transform="translate(209.033203 0)"/>
      <use xlink:href="#DejaVuSans-6d" transform="translate(272.509766 0)"/>
      <use xlink:href="#DejaVuSans-65" transform="translate(369.921875 0)"/>
      <use xlink:href="#DejaVuSans-6e" transform="translate(431.445312 0)"/>
      <use xlink:href="#DejaVuSans-74" transform="translate(494.824219 0)"/>
      <use xlink:href="#DejaVuSans-73" transform="translate(534.033203 0)"/>
     </g>
    </g>
    <g id="line2d_33">
     <path d="M 901.2325 390.0275 
L 917.2325 390.0275 
L 933.2325 390.0275 
" style="fill: none; stroke: #2ca02c; stroke-width: 3; stroke-linecap: square"/>
    </g>
    <g id="text_18">
     <!-- 8 segments -->
     <g transform="translate(946.0325 395.6275) scale(0.16 -0.16)">
      <defs>
       <path id="DejaVuSans-38" d="M 2034 2216 
Q 1584 2216 1326 1975 
Q 1069 1734 1069 1313 
Q 1069 891 1326 650 
Q 1584 409 2034 409 
Q 2484 409 2743 651 
Q 3003 894 3003 1313 
Q 3003 1734 2745 1975 
Q 2488 2216 2034 2216 
z
M 1403 2484 
Q 997 2584 770 2862 
Q 544 3141 544 3541 
Q 544 4100 942 4425 
Q 1341 4750 2034 4750 
Q 2731 4750 3128 4425 
Q 3525 4100 3525 3541 
Q 3525 3141 3298 2862 
Q 3072 2584 2669 2484 
Q 3125 2378 3379 2068 
Q 3634 1759 3634 1313 
Q 3634 634 3220 271 
Q 2806 -91 2034 -91 
Q 1263 -91 848 271 
Q 434 634 434 1313 
Q 434 1759 690 2068 
Q 947 2378 1403 2484 
z
M 1172 3481 
Q 1172 3119 1398 2916 
Q 1625 2713 2034 2713 
Q 2441 2713 2670 2916 
Q 2900 3119 2900 3481 
Q 2900 3844 2670 4047 
Q 2441 4250 2034 4250 
Q 1625 4250 1398 4047 
Q 1172 3844 1172 3481 
z
" transform="scale(0.015625)"/>
      </defs>
      <use xlink:href="#DejaVuSans-38"/>
      <use xlink:href="#DejaVuSans-20" transform="translate(63.623047 0)"/>
      <use xlink:href="#DejaVuSans-73" transform="translate(95.410156 0)"/>
      <use xlink:href="#DejaVuSans-65" transform="translate(147.509766 0)"/>
      <use xlink:href="#DejaVuSans-67" transform="translate(209.033203 0)"/>
      <use xlink:href="#DejaVuSans-6d" transform="translate(272.509766 0)"/>
      <use xlink:href="#DejaVuSans-65" transform="translate(369.921875 0)"/>
      <use xlink:href="#DejaVuSans-6e" transform="translate(431.445312 0)"/>
      <use xlink:href="#DejaVuSans-74" transform="translate(494.824219 0)"/>
      <use xlink:href="#DejaVuSans-73" transform="translate(534.033203 0)"/>
     </g>
    </g>
    <g id="line2d_34">
     <path d="M 901.2325 413.5125 
L 917.2325 413.5125 
L 933.2325 413.5125 
" style="fill: none; stroke: #d62728; stroke-width: 3; stroke-linecap: square"/>
    </g>
    <g id="text_19">
     <!-- 39 segments -->
     <g transform="translate(946.0325 419.1125) scale(0.16 -0.16)">
      <defs>
       <path id="DejaVuSans-33" d="M 2597 2516 
Q 3050 2419 3304 2112 
Q 3559 1806 3559 1356 
Q 3559 666 3084 287 
Q 2609 -91 1734 -91 
Q 1441 -91 1130 -33 
Q 819 25 488 141 
L 488 750 
Q 750 597 1062 519 
Q 1375 441 1716 441 
Q 2309 441 2620 675 
Q 2931 909 2931 1356 
Q 2931 1769 2642 2001 
Q 2353 2234 1838 2234 
L 1294 2234 
L 1294 2753 
L 1863 2753 
Q 2328 2753 2575 2939 
Q 2822 3125 2822 3475 
Q 2822 3834 2567 4026 
Q 2313 4219 1838 4219 
Q 1578 4219 1281 4162 
Q 984 4106 628 3988 
L 628 4550 
Q 988 4650 1302 4700 
Q 1616 4750 1894 4750 
Q 2613 4750 3031 4423 
Q 3450 4097 3450 3541 
Q 3450 3153 3228 2886 
Q 3006 2619 2597 2516 
z
" transform="scale(0.015625)"/>
       <path id="DejaVuSans-39" d="M 703 97 
L 703 672 
Q 941 559 1184 500 
Q 1428 441 1663 441 
Q 2288 441 2617 861 
Q 2947 1281 2994 2138 
Q 2813 1869 2534 1725 
Q 2256 1581 1919 1581 
Q 1219 1581 811 2004 
Q 403 2428 403 3163 
Q 403 3881 828 4315 
Q 1253 4750 1959 4750 
Q 2769 4750 3195 4129 
Q 3622 3509 3622 2328 
Q 3622 1225 3098 567 
Q 2575 -91 1691 -91 
Q 1453 -91 1209 -44 
Q 966 3 703 97 
z
M 1959 2075 
Q 2384 2075 2632 2365 
Q 2881 2656 2881 3163 
Q 2881 3666 2632 3958 
Q 2384 4250 1959 4250 
Q 1534 4250 1286 3958 
Q 1038 3666 1038 3163 
Q 1038 2656 1286 2365 
Q 1534 2075 1959 2075 
z
" transform="scale(0.015625)"/>
      </defs>
      <use xlink:href="#DejaVuSans-33"/>
      <use xlink:href="#DejaVuSans-39" transform="translate(63.623047 0)"/>
      <use xlink:href="#DejaVuSans-20" transform="translate(127.246094 0)"/>
      <use xlink:href="#DejaVuSans-73" transform="translate(159.033203 0)"/>
      <use xlink:href="#DejaVuSans-65" transform="translate(211.132812 0)"/>
      <use xlink:href="#DejaVuSans-67" transform="translate(272.65625 0)"/>
      <use xlink:href="#DejaVuSans-6d" transform="translate(336.132812 0)"/>
      <use xlink:href="#DejaVuSans-65" transform="translate(433.544922 0)"/>
      <use xlink:href="#DejaVuSans-6e" transform="translate(495.068359 0)"/>
      <use xlink:href="#DejaVuSans-74" transform="translate(558.447266 0)"/>
      <use xlink:href="#DejaVuSans-73" transform="translate(597.65625 0)"/>
     </g>
    </g>
   </g>
  </g>
 </g>
 <defs>
  <clipPath id="pc832bb5882">
   <rect x="100.7825" y="7.2" width="963.61" height="429.64"/>
  </clipPath>
 </defs>
</svg>
